<?xml version="1.0" standalone="no"?>
<!DOCTYPE svg PUBLIC "-//W3C//DTD SVG 20010904//EN"
 "http://www.w3.org/TR/2001/REC-SVG-20010904/DTD/svg10.dtd">
<svg version="1.0" xmlns="http://www.w3.org/2000/svg"
 width="400.000000pt" height="400.000000pt" viewBox="0 0 400.000000 400.000000"
 preserveAspectRatio="xMidYMid meet">
<metadata>
Created by potrace 1.14, written by Peter Selinger 2001-2017
</metadata>
<g transform="translate(0.000000,400.000000) scale(0.100000,-0.100000)"
fill="#000000" stroke="none">
<path d="M1344 3165 c-250 -67 -427 -236 -504 -480 l-25 -80 -3 -823 -3 -824
22 -44 c30 -63 78 -96 144 -102 71 -6 97 2 140 40 68 59 65 36 65 581 0 570 0
570 79 648 44 45 119 79 173 79 17 0 19 9 17 120 l-1 120 -39 0 c-91 0 -186
78 -215 176 -45 154 50 290 228 328 24 6 26 9 18 36 -5 17 -5 30 -1 30 4 0 7
9 8 20 1 11 -2 20 -5 20 -4 0 -9 14 -10 31 -2 19 2 28 8 24 6 -3 10 3 10 15 0
12 -4 19 -8 16 -5 -3 -9 1 -9 9 0 8 5 11 10 8 6 -4 8 3 4 18 -4 13 -7 30 -7
37 0 15 -31 14 -96 -3z"/>
<path d="M2944 2762 c-17 -9 -149 -99 -293 -200 -180 -126 -271 -196 -292
-225 -40 -55 -63 -137 -56 -199 11 -91 46 -143 212 -318 86 -91 163 -177 170
-191 36 -67 27 -162 -21 -219 -14 -16 -119 -103 -232 -192 -114 -89 -214 -171
-224 -182 -28 -35 -32 -89 -9 -134 34 -66 115 -91 176 -54 55 34 559 423 583
450 13 15 35 51 49 81 22 46 25 63 21 130 -3 50 -12 89 -26 116 -11 22 -86
112 -166 200 -80 88 -153 175 -162 194 -24 49 -22 127 5 178 16 33 62 73 223
195 111 84 210 165 221 180 26 34 27 106 3 143 -40 60 -120 81 -182 47z"/>
</g>
</svg>
